<svg class="main-svg" xmlns="http://www.w3.org/2000/svg" xmlns:xlink="http://www.w3.org/1999/xlink" width="400" height="300" viewBox="0 0 400 300"><rect x="0" y="0" width="400" height="300" style="fill: rgb(255, 255, 255); fill-opacity: 1;"/><defs id="defs-17652f"><g class="clips"><clipPath id="clip17652fxyplot" class="plotclip"><rect width="269.6211942257218" height="230.3054826480023"/></clipPath><clipPath class="axesclip" id="clip17652fx"><rect x="43.268569553805776" y="0" width="269.6211942257218" height="300"/></clipPath><clipPath class="axesclip" id="clip17652fy"><rect x="0" y="23.41207349081365" width="400" height="230.3054826480023"/></clipPath><clipPath class="axesclip" id="clip17652fxy"><rect x="43.268569553805776" y="23.41207349081365" width="269.6211942257218" height="230.3054826480023"/></clipPath></g><g class="gradients"/></defs><g class="bglayer"/><g class="layer-below"><g class="imagelayer"/><g class="shapelayer"/></g><g class="cartesianlayer"><g class="subplot xy"><g class="layer-subplot"><g class="shapelayer"/><g class="imagelayer"/></g><g class="gridlayer"><g class="x"><path class="xgrid crisp" transform="translate(76.78856955380579,0)" d="M0,23.41207349081365v230.3054826480023" style="stroke: rgb(0, 0, 0); stroke-opacity: 0.1; stroke-width: 0.5px;"/><path class="xgrid crisp" transform="translate(122.49856955380578,0)" d="M0,23.41207349081365v230.3054826480023" style="stroke: rgb(0, 0, 0); stroke-opacity: 0.1; stroke-width: 0.5px;"/><path class="xgrid crisp" transform="translate(168.19856955380578,0)" d="M0,23.41207349081365v230.3054826480023" style="stroke: rgb(0, 0, 0); stroke-opacity: 0.1; stroke-width: 0.5px;"/><path class="xgrid crisp" transform="translate(213.90856955380576,0)" d="M0,23.41207349081365v230.3054826480023" style="stroke: rgb(0, 0, 0); stroke-opacity: 0.1; stroke-width: 0.5px;"/><path class="xgrid crisp" transform="translate(259.61856955380574,0)" d="M0,23.41207349081365v230.3054826480023" style="stroke: rgb(0, 0, 0); stroke-opacity: 0.1; stroke-width: 0.5px;"/><path class="xgrid crisp" transform="translate(305.3185695538058,0)" d="M0,23.41207349081365v230.3054826480023" style="stroke: rgb(0, 0, 0); stroke-opacity: 0.1; stroke-width: 0.5px;"/></g><g class="y"><path class="ygrid crisp" transform="translate(0,247.75207349081364)" d="M43.268569553805776,0h269.6211942257218" style="stroke: rgb(0, 0, 0); stroke-opacity: 0.1; stroke-width: 0.5px;"/><path class="ygrid crisp" transform="translate(0,193.29207349081364)" d="M43.268569553805776,0h269.6211942257218" style="stroke: rgb(0, 0, 0); stroke-opacity: 0.1; stroke-width: 0.5px;"/><path class="ygrid crisp" transform="translate(0,138.84207349081365)" d="M43.268569553805776,0h269.6211942257218" style="stroke: rgb(0, 0, 0); stroke-opacity: 0.1; stroke-width: 0.5px;"/><path class="ygrid crisp" transform="translate(0,84.38207349081365)" d="M43.268569553805776,0h269.6211942257218" style="stroke: rgb(0, 0, 0); stroke-opacity: 0.1; stroke-width: 0.5px;"/><path class="ygrid crisp" transform="translate(0,29.93207349081365)" d="M43.268569553805776,0h269.6211942257218" style="stroke: rgb(0, 0, 0); stroke-opacity: 0.1; stroke-width: 0.5px;"/></g></g><g class="zerolinelayer"/><path class="xlines-below"/><path class="ylines-below"/><g class="overlines-below"/><g class="xaxislayer-below"/><g class="yaxislayer-below"/><g class="overaxes-below"/><g class="plot" transform="translate(43.268569553805776, 23.41207349081365)" clip-path="url(#clip17652fxyplot)"><g class="scatterlayer mlayer"><g class="trace scatter trace97b807" style="stroke-miterlimit: 2;"><g class="fills"><g><path class="js-fill" d="M7.63,224.34L7.63,224.34L7.63,223.79L17.91,221.93L20.48,221.21L33.32,217.85L35.89,216.54L43.6,213.07L46.17,211.24L48.74,210.48L51.31,208.79L59.02,203.74L61.59,201L64.16,199.14L66.72,196.26L69.29,194.97L71.86,192.56L97.56,166.25L100.13,162.82L110.4,151.45L112.97,148.83L118.11,144.11L120.68,141.93L125.82,137.42L128.39,133.95L143.8,117.1L146.37,113.36L161.79,96.11L164.36,92.47L169.5,85.8L172.07,83.16L184.91,70.27L187.48,67.17L205.47,45.64L208.04,43.23L228.59,25.05L231.16,23.21L241.44,16.45L244.01,14.53L251.71,10.02L254.28,9.35L256.85,8.91L259.42,7.46L261.99,6.52L256.85,8.15L254.28,8.53L249.14,10.02L246.57,11.57L226.02,24.13L223.45,26.22L215.74,32.51L213.17,34.81L202.9,43.92L200.33,47.24L195.19,52.4L192.62,55.73L177.2,72.24L174.63,74.25L166.93,82.18L164.36,85.67L159.22,91.77L156.65,94.82L148.94,103.23L146.37,105.9L143.8,109.72L141.23,111.87L133.53,120.59L130.96,123.78L120.68,134.54L118.11,136.68L112.97,141.41L110.4,144.1L102.69,152.84L100.13,155.86L94.99,162.41L92.42,165.14L71.86,188.1L69.29,190.76L66.72,192.16L64.16,195.24L61.59,197.19L59.02,200.14L48.74,207.66L46.17,208.54L41.03,212.23L38.46,213.65L23.05,219.47L20.48,220.09L7.63,223.34" style="fill: rgb(0, 154, 250); fill-opacity: 0.5; stroke-width: 0;"/></g></g><g class="errorbars"/><g class="lines"><path class="js-line" d="M7.63,223.79L17.91,221.93L20.48,221.21L33.32,217.85L35.89,216.54L43.6,213.07L46.17,211.24L48.74,210.48L51.31,208.79L59.02,203.74L61.59,201L64.16,199.14L66.72,196.26L69.29,194.97L71.86,192.56L97.56,166.25L100.13,162.82L110.4,151.45L112.97,148.83L118.11,144.11L120.68,141.93L125.82,137.42L128.39,133.95L143.8,117.1L146.37,113.36L161.79,96.11L164.36,92.47L169.5,85.8L172.07,83.16L184.91,70.27L187.48,67.17L205.47,45.64L208.04,43.23L228.59,25.05L231.16,23.21L241.44,16.45L244.01,14.53L251.71,10.02L254.28,9.35L256.85,8.91L259.42,7.46L261.99,6.52L256.85,8.15L254.28,8.53L249.14,10.02L246.57,11.57L226.02,24.13L223.45,26.22L215.74,32.51L213.17,34.81L202.9,43.92L200.33,47.24L195.19,52.4L192.62,55.73L177.2,72.24L174.63,74.25L166.93,82.18L164.36,85.67L159.22,91.77L156.65,94.82L148.94,103.23L146.37,105.9L143.8,109.72L141.23,111.87L133.53,120.59L130.96,123.78L120.68,134.54L118.11,136.68L112.97,141.41L110.4,144.1L102.69,152.84L100.13,155.86L94.99,162.41L92.42,165.14L71.86,188.1L69.29,190.76L66.72,192.16L64.16,195.24L61.59,197.19L59.02,200.14L48.74,207.66L46.17,208.54L41.03,212.23L38.46,213.65L23.05,219.47L20.48,220.09L7.63,223.34" style="vector-effect: non-scaling-stroke; fill: none; stroke: rgb(0, 154, 250); stroke-opacity: 1; stroke-width: 0px; opacity: 1;"/></g><g class="points"/><g class="text"/></g><g class="trace scatter trace34576e" style="stroke-miterlimit: 2; opacity: 1;"><g class="fills"/><g class="errorbars"/><g class="lines"><path class="js-line" d="M7.63,223.56L20.48,220.65L23.05,220.07L33.32,217.02L35.89,215.61L41.03,213.33L43.6,211.83L46.17,209.89L48.74,209.07L59.02,201.94L61.59,199.09L64.16,197.19L66.72,194.21L69.29,192.87L71.86,190.33L97.56,162.89L100.13,159.34L110.4,147.78L112.97,145.12L118.11,140.39L120.68,138.23L125.82,133.74L128.39,130.23L143.8,113.41L146.37,109.63L161.79,92.7L164.36,89.07L169.5,82.55L172.07,79.94L184.91,67.31L187.48,64.3L208.04,41.16L210.6,38.97L228.59,23.79L231.16,22.03L241.44,15.57L244.01,13.79L251.71,9.56L254.28,8.94L256.85,8.53L259.42,7.24L261.99,6.52" style="vector-effect: non-scaling-stroke; fill: none; stroke: rgb(0, 154, 250); stroke-opacity: 1; stroke-width: 1px; opacity: 1;"/></g><g class="points"/><g class="text"/></g><g class="trace scatter trace4bea45" style="stroke-miterlimit: 2;"><g class="fills"><g><path class="js-fill" d="M7.63,224.34L7.63,224.34L7.63,223.54L17.91,221.63L20.48,221.01L38.46,216.93L41.03,216.06L56.45,209.51L59.02,207.86L84.71,187.09L87.28,184.99L110.4,166.51L112.97,164.01L120.68,157.14L123.25,155.57L138.66,140.08L141.23,137.95L146.37,133.95L148.94,131.61L156.65,121.4L159.22,118.59L164.36,112.4L166.93,110.33L177.2,98.82L179.77,96.02L190.05,85.43L192.62,81.99L200.33,72.71L202.9,69.14L220.88,52.96L223.45,49.35L231.16,42.09L233.73,39.29L244.01,25.4L246.57,20.81L256.85,10.77L259.42,9.16L261.99,6.52L259.42,8.35L256.85,9.71L251.71,13.8L249.14,16.08L246.57,18.48L244.01,22.57L228.59,40.62L226.02,42.64L223.45,44.64L220.88,48.09L202.9,63.17L200.33,66.45L195.19,72.62L192.62,75.61L187.48,80.99L184.91,84.28L177.2,91.78L174.63,94.86L161.79,107.69L159.22,111.06L151.51,120.43L148.94,124.14L133.53,138.2L130.96,140.57L120.68,150.06L118.11,152.4L105.26,164.33L102.69,165.67L84.71,181.27L82.14,182.98L77,187.6L74.43,190.33L69.29,194.68L66.72,197.73L61.59,201.78L59.02,204.12L53.88,207.23L51.31,208.52L35.89,215.98L33.32,216.61L12.77,221.72L10.2,222.42L7.63,222.86" style="fill: rgb(227, 111, 71); fill-opacity: 0.5; stroke-width: 0;"/></g></g><g class="errorbars"/><g class="lines"><path class="js-line" d="M7.63,223.54L17.91,221.63L20.48,221.01L38.46,216.93L41.03,216.06L56.45,209.51L59.02,207.86L84.71,187.09L87.28,184.99L110.4,166.51L112.97,164.01L120.68,157.14L123.25,155.57L138.66,140.08L141.23,137.95L146.37,133.95L148.94,131.61L156.65,121.4L159.22,118.59L164.36,112.4L166.93,110.33L177.2,98.82L179.77,96.02L190.05,85.43L192.62,81.99L200.33,72.71L202.9,69.14L220.88,52.96L223.45,49.35L231.16,42.09L233.73,39.29L244.01,25.4L246.57,20.81L256.85,10.77L259.42,9.16L261.99,6.52L259.42,8.35L256.85,9.71L251.71,13.8L249.14,16.08L246.57,18.48L244.01,22.57L228.59,40.62L226.02,42.64L223.45,44.64L220.88,48.09L202.9,63.17L200.33,66.45L195.19,72.62L192.62,75.61L187.48,80.99L184.91,84.28L177.2,91.78L174.63,94.86L161.79,107.69L159.22,111.06L151.51,120.43L148.94,124.14L133.53,138.2L130.96,140.57L120.68,150.06L118.11,152.4L105.26,164.33L102.69,165.67L84.71,181.27L82.14,182.98L77,187.6L74.43,190.33L69.29,194.68L66.72,197.73L61.59,201.78L59.02,204.12L53.88,207.23L51.31,208.52L35.89,215.98L33.32,216.61L12.77,221.72L10.2,222.42L7.63,222.86" style="vector-effect: non-scaling-stroke; fill: none; stroke: rgb(227, 111, 71); stroke-opacity: 1; stroke-width: 0px; opacity: 1;"/></g><g class="points"/><g class="text"/></g><g class="trace scatter trace50ab02" style="stroke-miterlimit: 2; opacity: 1;"><g class="fills"/><g class="errorbars"/><g class="lines"><path class="js-line" d="M7.63,223.2L15.34,221.5L17.91,220.94L38.46,215.84L41.03,214.87L56.45,207.78L59.02,205.99L77,190.27L79.57,187.71L97.56,173.86L100.13,171.32L105.26,167.68L107.83,165.55L120.68,153.6L123.25,152.05L138.66,136.36L141.23,134.21L146.37,130.2L148.94,127.88L156.65,117.62L159.22,114.83L164.36,108.79L166.93,106.73L177.2,95.3L179.77,92.55L190.05,82.17L192.62,78.8L200.33,69.58L202.9,66.15L220.88,50.53L223.45,47L231.16,39.98L233.73,37.22L244.01,23.99L246.57,19.65L256.85,10.24L259.42,8.76L261.99,6.52" style="vector-effect: non-scaling-stroke; fill: none; stroke: rgb(227, 111, 71); stroke-opacity: 1; stroke-width: 1px; opacity: 1;"/></g><g class="points"/><g class="text"/></g></g></g><g class="overplot"/><path class="xlines-above crisp" d="M42.268569553805776,254.21755613881595H312.8897637795276" style="fill: none; stroke-width: 1px; stroke: rgb(0, 0, 0); stroke-opacity: 1;"/><path class="ylines-above crisp" d="M42.768569553805776,23.41207349081365V253.71755613881595" style="fill: none; stroke-width: 1px; stroke: rgb(0, 0, 0); stroke-opacity: 1;"/><g class="overlines-above"/><g class="xaxislayer-above"><path class="xtick ticks crisp" d="M0,253.71755613881595v-5" transform="translate(76.78856955380579,0)" style="stroke: rgb(0, 0, 0); stroke-opacity: 1; stroke-width: 1px;"/><path class="xtick ticks crisp" d="M0,253.71755613881595v-5" transform="translate(122.49856955380578,0)" style="stroke: rgb(0, 0, 0); stroke-opacity: 1; stroke-width: 1px;"/><path class="xtick ticks crisp" d="M0,253.71755613881595v-5" transform="translate(168.19856955380578,0)" style="stroke: rgb(0, 0, 0); stroke-opacity: 1; stroke-width: 1px;"/><path class="xtick ticks crisp" d="M0,253.71755613881595v-5" transform="translate(213.90856955380576,0)" style="stroke: rgb(0, 0, 0); stroke-opacity: 1; stroke-width: 1px;"/><path class="xtick ticks crisp" d="M0,253.71755613881595v-5" transform="translate(259.61856955380574,0)" style="stroke: rgb(0, 0, 0); stroke-opacity: 1; stroke-width: 1px;"/><path class="xtick ticks crisp" d="M0,253.71755613881595v-5" transform="translate(305.3185695538058,0)" style="stroke: rgb(0, 0, 0); stroke-opacity: 1; stroke-width: 1px;"/><g class="xtick"><text text-anchor="middle" x="0" y="267.91755613881594" transform="translate(76.78856955380579,0)" style="font-family: sans-serif; font-size: 11px; fill: rgb(0, 0, 0); fill-opacity: 1; white-space: pre;">0</text></g><g class="xtick"><text text-anchor="middle" x="0" y="267.91755613881594" transform="translate(122.49856955380578,0)" style="font-family: sans-serif; font-size: 11px; fill: rgb(0, 0, 0); fill-opacity: 1; white-space: pre;">5</text></g><g class="xtick"><text text-anchor="middle" x="0" y="267.91755613881594" transform="translate(168.19856955380578,0)" style="font-family: sans-serif; font-size: 11px; fill: rgb(0, 0, 0); fill-opacity: 1; white-space: pre;">10</text></g><g class="xtick"><text text-anchor="middle" x="0" y="267.91755613881594" transform="translate(213.90856955380576,0)" style="font-family: sans-serif; font-size: 11px; fill: rgb(0, 0, 0); fill-opacity: 1; white-space: pre;">15</text></g><g class="xtick"><text text-anchor="middle" x="0" y="267.91755613881594" transform="translate(259.61856955380574,0)" style="font-family: sans-serif; font-size: 11px; fill: rgb(0, 0, 0); fill-opacity: 1; white-space: pre;">20</text></g><g class="xtick"><text text-anchor="middle" x="0" y="267.91755613881594" transform="translate(305.3185695538058,0)" style="font-family: sans-serif; font-size: 11px; fill: rgb(0, 0, 0); fill-opacity: 1; white-space: pre;">25</text></g></g><g class="yaxislayer-above"><path class="ytick ticks crisp" d="M43.268569553805776,0h5" transform="translate(0,247.75207349081364)" style="stroke: rgb(0, 0, 0); stroke-opacity: 1; stroke-width: 1px;"/><path class="ytick ticks crisp" d="M43.268569553805776,0h5" transform="translate(0,193.29207349081364)" style="stroke: rgb(0, 0, 0); stroke-opacity: 1; stroke-width: 1px;"/><path class="ytick ticks crisp" d="M43.268569553805776,0h5" transform="translate(0,138.84207349081365)" style="stroke: rgb(0, 0, 0); stroke-opacity: 1; stroke-width: 1px;"/><path class="ytick ticks crisp" d="M43.268569553805776,0h5" transform="translate(0,84.38207349081365)" style="stroke: rgb(0, 0, 0); stroke-opacity: 1; stroke-width: 1px;"/><path class="ytick ticks crisp" d="M43.268569553805776,0h5" transform="translate(0,29.93207349081365)" style="stroke: rgb(0, 0, 0); stroke-opacity: 1; stroke-width: 1px;"/><g class="ytick"><text text-anchor="end" x="40.06856955380577" y="3.8499999999999996" transform="translate(0,247.75207349081364)" style="font-family: sans-serif; font-size: 11px; fill: rgb(0, 0, 0); fill-opacity: 1; white-space: pre;">0.00</text></g><g class="ytick"><text text-anchor="end" x="40.06856955380577" y="3.8499999999999996" transform="translate(0,193.29207349081364)" style="font-family: sans-serif; font-size: 11px; fill: rgb(0, 0, 0); fill-opacity: 1; white-space: pre;">0.25</text></g><g class="ytick"><text text-anchor="end" x="40.06856955380577" y="3.8499999999999996" transform="translate(0,138.84207349081365)" style="font-family: sans-serif; font-size: 11px; fill: rgb(0, 0, 0); fill-opacity: 1; white-space: pre;">0.50</text></g><g class="ytick"><text text-anchor="end" x="40.06856955380577" y="3.8499999999999996" transform="translate(0,84.38207349081365)" style="font-family: sans-serif; font-size: 11px; fill: rgb(0, 0, 0); fill-opacity: 1; white-space: pre;">0.75</text></g><g class="ytick"><text text-anchor="end" x="40.06856955380577" y="3.8499999999999996" transform="translate(0,29.93207349081365)" style="font-family: sans-serif; font-size: 11px; fill: rgb(0, 0, 0); fill-opacity: 1; white-space: pre;">1.00</text></g></g><g class="overaxes-above"/></g></g><g class="polarlayer"/><g class="ternarylayer"/><g class="geolayer"/><g class="pielayer"/><g class="glimages"/><defs id="topdefs-17652f"><g class="clips"/><clipPath id="legend17652f"><rect width="84" height="48" x="0" y="0"/></clipPath></defs><g class="layer-above"><g class="imagelayer"/><g class="shapelayer"/></g><g class="infolayer"><g class="legend" pointer-events="all" transform="translate(316, 20)"><rect class="bg" shape-rendering="crispEdges" style="stroke: rgb(0, 0, 0); stroke-opacity: 1; fill: rgb(255, 255, 255); fill-opacity: 1; stroke-width: 0px;" width="84" height="48" x="0" y="0"/><g class="scrollbox" transform="translate(0, 0)" clip-path="url(#legend17652f)"><g class="groups" transform="translate(0, 0)"><g class="traces" transform="translate(0, 14.5)" style="opacity: 1;"><text class="legendtext user-select-none" text-anchor="start" x="40" y="4.29" style="font-family: sans-serif; font-size: 11px; fill: rgb(0, 0, 0); fill-opacity: 1; white-space: pre;">Female</text><rect class="legendtoggle" pointer-events="all" style="cursor: pointer; fill: rgb(0, 0, 0); fill-opacity: 0;" x="0" y="-9.5" width="124" height="19"/><g class="layers" style="opacity: 1;"><g class="legendfill"/><g class="legendlines"><path class="js-line" d="M5,0h30" style="fill: none; stroke: rgb(0, 154, 250); stroke-opacity: 1; stroke-width: 1px;"/></g><g class="legendsymbols"><g class="legendpoints"/></g></g></g></g><g class="groups" transform="translate(0, 0)"><g class="traces" transform="translate(0, 33.5)" style="opacity: 1;"><text class="legendtext user-select-none" text-anchor="start" x="40" y="4.29" style="font-family: sans-serif; font-size: 11px; fill: rgb(0, 0, 0); fill-opacity: 1; white-space: pre;">Male</text><rect class="legendtoggle" pointer-events="all" x="0" y="-9.5" width="124" height="19" style="cursor: pointer; fill: rgb(0, 0, 0); fill-opacity: 0;"/><g class="layers" style="opacity: 1;"><g class="legendfill"/><g class="legendlines"><path class="js-line" d="M5,0h30" style="fill: none; stroke: rgb(227, 111, 71); stroke-opacity: 1; stroke-width: 1px;"/></g><g class="legendsymbols"><g class="legendpoints"/></g></g></g></g></g><rect class="scrollbar" rx="20" ry="3" width="0" height="0" style="fill: rgb(128, 139, 164); fill-opacity: 1;" x="0" y="0"/></g><g class="g-gtitle"/><g class="g-xtitle" transform="translate(0,-11.717556138816008)"><text class="xtitle" x="178.07916666666668" y="308.717556138816" text-anchor="middle" style="font-family: sans-serif; font-size: 15px; fill: rgb(0, 0, 0); opacity: 1; font-weight: normal; white-space: pre;">MAch</text></g><g class="g-ytitle" transform="translate(10.7333984375,0)"><text class="ytitle" transform="rotate(-90,3.2685695538057757,138.5648148148148)" x="3.2685695538057757" y="138.5648148148148" text-anchor="middle" style="font-family: sans-serif; font-size: 15px; fill: rgb(0, 0, 0); opacity: 1; font-weight: normal; white-space: pre;">CDF</text></g></g></svg>