<svg class="main-svg" xmlns="http://www.w3.org/2000/svg" xmlns:xlink="http://www.w3.org/1999/xlink" width="400" height="300" viewBox="0 0 400 300"><rect x="0" y="0" width="400" height="300" style="fill: rgb(255, 255, 255); fill-opacity: 1;"/><defs id="defs-1ffa18"><g class="clips"><clipPath id="clip1ffa18xyplot" class="plotclip"><rect width="307.9013998250219" height="243.54622338874307"/></clipPath><clipPath class="axesclip" id="clip1ffa18x"><rect x="17.860411198600175" y="0" width="307.9013998250219" height="300"/></clipPath><clipPath class="axesclip" id="clip1ffa18y"><rect x="0" y="23.41207349081365" width="400" height="243.54622338874307"/></clipPath><clipPath class="axesclip" id="clip1ffa18xy"><rect x="17.860411198600175" y="23.41207349081365" width="307.9013998250219" height="243.54622338874307"/></clipPath></g><g class="gradients"/></defs><g class="bglayer"/><g class="layer-below"><g class="imagelayer"/><g class="shapelayer"/></g><g class="cartesianlayer"><g class="subplot xy"><g class="layer-subplot"><g class="shapelayer"/><g class="imagelayer"/></g><g class="gridlayer"><g class="x"><path class="xgrid crisp" transform="translate(26.570411198600176,0)" d="M0,23.41207349081365v243.54622338874307" style="stroke: rgb(0, 0, 0); stroke-opacity: 0.1; stroke-width: 0.5px;"/><path class="xgrid crisp" transform="translate(99.19041119860017,0)" d="M0,23.41207349081365v243.54622338874307" style="stroke: rgb(0, 0, 0); stroke-opacity: 0.1; stroke-width: 0.5px;"/><path class="xgrid crisp" transform="translate(171.81041119860015,0)" d="M0,23.41207349081365v243.54622338874307" style="stroke: rgb(0, 0, 0); stroke-opacity: 0.1; stroke-width: 0.5px;"/><path class="xgrid crisp" transform="translate(244.43041119860015,0)" d="M0,23.41207349081365v243.54622338874307" style="stroke: rgb(0, 0, 0); stroke-opacity: 0.1; stroke-width: 0.5px;"/><path class="xgrid crisp" transform="translate(317.05041119860016,0)" d="M0,23.41207349081365v243.54622338874307" style="stroke: rgb(0, 0, 0); stroke-opacity: 0.1; stroke-width: 0.5px;"/></g><g class="y"><path class="ygrid crisp" transform="translate(0,252.76207349081363)" d="M17.860411198600175,0h307.9013998250219" style="stroke: rgb(0, 0, 0); stroke-opacity: 0.1; stroke-width: 0.5px;"/><path class="ygrid crisp" transform="translate(0,216.19207349081364)" d="M17.860411198600175,0h307.9013998250219" style="stroke: rgb(0, 0, 0); stroke-opacity: 0.1; stroke-width: 0.5px;"/><path class="ygrid crisp" transform="translate(0,179.61207349081363)" d="M17.860411198600175,0h307.9013998250219" style="stroke: rgb(0, 0, 0); stroke-opacity: 0.1; stroke-width: 0.5px;"/><path class="ygrid crisp" transform="translate(0,143.04207349081364)" d="M17.860411198600175,0h307.9013998250219" style="stroke: rgb(0, 0, 0); stroke-opacity: 0.1; stroke-width: 0.5px;"/><path class="ygrid crisp" transform="translate(0,106.47207349081366)" d="M17.860411198600175,0h307.9013998250219" style="stroke: rgb(0, 0, 0); stroke-opacity: 0.1; stroke-width: 0.5px;"/><path class="ygrid crisp" transform="translate(0,69.90207349081365)" d="M17.860411198600175,0h307.9013998250219" style="stroke: rgb(0, 0, 0); stroke-opacity: 0.1; stroke-width: 0.5px;"/><path class="ygrid crisp" transform="translate(0,33.32207349081365)" d="M17.860411198600175,0h307.9013998250219" style="stroke: rgb(0, 0, 0); stroke-opacity: 0.1; stroke-width: 0.5px;"/></g></g><g class="zerolinelayer"/><path class="xlines-below"/><path class="ylines-below"/><g class="overlines-below"/><g class="xaxislayer-below"/><g class="yaxislayer-below"/><g class="overaxes-below"/><g class="plot" transform="translate(17.860411198600175, 23.41207349081365)" clip-path="url(#clip1ffa18xyplot)"><g class="scatterlayer mlayer"><g class="trace scatter trace1af38f" style="stroke-miterlimit: 2;"><g class="fills"><g><path class="js-fill" d="M8.71,-26.66L8.71,-26.66L8.71,93.16L10.17,115.8L11.62,103.52L13.07,111.36L14.52,75.9L15.98,96.32L17.43,102.32L18.88,125.51L20.33,105.89L21.79,102.84L23.24,94.7L24.69,141.07L26.14,112.07L27.59,109.44L29.05,96.04L30.5,133.75L31.95,105.34L33.4,120.53L34.86,106.53L36.31,73.75L37.76,110.31L39.21,82.22L40.67,149.59L42.12,79.81L43.57,88.41L45.02,94.78L46.48,159.45L47.93,107.47L49.38,114.35L50.83,96.62L52.29,132.63L53.74,116.37L55.19,110.19L56.64,111.63L58.09,89.63L59.55,135.13L61,88.71L62.45,111.76L63.9,109.87L66.81,133.33L68.26,103.67L69.71,63.33L71.17,95.39L72.62,66.94L74.07,81.8L75.52,83.98L76.98,94.42L78.43,64.04L79.88,61.12L81.33,94.29L82.78,68.94L84.24,63.8L85.69,121.28L87.14,104.38L88.59,114.39L90.05,101.89L91.5,82.39L92.95,103.26L94.4,85.81L95.86,58.98L97.31,113.55L98.76,86.9L100.21,128.71L101.67,90.2L103.12,132.56L104.57,106.71L106.02,151.62L107.48,139.01L108.93,136.06L110.38,149.06L111.83,121.92L113.28,121.49L114.74,145.86L116.19,142.92L117.64,153.41L119.09,136.13L120.55,138.76L122,145.93L123.45,144.78L124.9,145.62L126.36,183.32L127.81,151.43L129.26,188.93L130.71,189.25L132.17,204.15L133.62,179.58L135.07,215.76L136.52,195.12L137.97,213.34L139.43,186.85L140.88,176.04L142.33,204.85L143.78,182.63L146.69,198.32L148.14,236.65L149.59,185.12L151.05,203.76L152.5,177.2L153.95,208.37L155.4,208.71L156.86,192.01L158.31,187.47L159.76,152.39L161.21,151.12L162.66,146.13L164.12,177.89L165.57,185.3L167.02,176.94L168.47,193.2L169.93,186.9L171.38,165.71L172.83,202.51L174.28,172.17L175.74,169.03L177.19,153.82L178.64,178.76L180.09,169.92L181.55,162.4L183,144.63L184.45,149.47L185.9,128.91L188.81,165.32L190.26,168.74L191.71,176.24L193.16,149.38L194.62,144.5L196.07,133.76L197.52,163.38L198.97,130.57L200.43,146.46L201.88,136.5L203.33,129.69L204.78,143.55L206.24,144.89L207.69,131.12L209.14,110.08L210.59,130.31L212.05,86.57L213.5,103.38L217.85,123.84L219.31,128.76L220.76,127.07L222.21,123.56L223.66,71.14L225.12,127.91L226.57,66.21L228.02,102.39L229.47,80.13L230.93,92.53L232.38,96.26L233.83,94.6L235.28,118.59L236.74,126.25L238.19,124.76L239.64,131.82L241.09,120.21L242.54,121.05L244,134.49L245.45,121.69L248.35,163.79L249.81,146.06L251.26,197.72L252.71,157.14L254.16,157.76L255.62,183.8L258.52,151.97L259.97,166.71L261.43,183.73L262.88,131.48L264.33,140.9L265.78,145.04L267.24,131.28L268.69,127.89L270.14,159.79L271.59,140L273.04,165.56L274.5,128.34L275.95,161.3L277.4,139.44L278.85,138.75L280.31,111.81L281.76,138.74L283.21,116.82L284.66,107.13L286.12,122.38L287.57,132L289.02,135.21L290.47,112.37L291.93,154L293.38,100.79L294.83,149L296.28,111.8L297.73,117.69L299.19,109.92L299.19,79.7L297.73,30.63L296.28,39.04L294.83,48.29L293.38,52.46L291.93,65.75L290.47,69.7L289.02,36.87L287.57,66.04L286.12,34.33L284.66,99.04L283.21,47.09L281.76,72.09L280.31,98.18L278.85,84.13L277.4,80.16L275.95,48.23L274.5,72.63L273.04,68.22L271.59,71.69L270.14,61.23L268.69,87.86L267.24,22.58L265.78,89.17L264.33,77.39L262.88,92.47L261.43,82.1L259.97,52.84L258.52,49.08L257.07,41.33L255.62,79.14L254.16,6.89L252.71,50.37L251.26,49.03L249.81,94.13L245.45,44.46L244,74.96L242.54,8.76L241.09,85.33L239.64,81.5L238.19,57.43L236.74,80.29L235.28,27.84L233.83,81.75L232.38,48.94L230.93,71.74L229.47,66.04L228.02,62.85L226.57,54.3L225.12,90.54L223.66,45.73L222.21,73.63L220.76,48.1L219.31,74.74L217.85,72.18L216.4,103.29L214.95,81.17L213.5,56.9L212.05,79.84L210.59,89.2L209.14,109.59L206.24,49.94L204.78,30.4L203.33,87.4L201.88,27.78L200.43,103.51L198.97,66.58L197.52,21.45L196.07,42.2L194.62,17.57L193.16,61.49L191.71,55.84L190.26,73.5L188.81,73.12L187.36,84.69L185.9,50.7L184.45,128.83L183,85.43L181.55,156.59L180.09,107.39L178.64,164.75L177.19,127.52L175.74,158.38L172.83,111.49L171.38,156.89L169.93,90.47L168.47,147.15L167.02,75.21L165.57,94.88L164.12,86.46L162.66,118.51L161.21,83.39L159.76,83.79L158.31,84.9L156.86,110.09L155.4,132.1L153.95,91.22L152.5,115.76L151.05,53.13L149.59,111.15L148.14,89.53L146.69,115.98L145.24,55.77L140.88,133.22L139.43,78.53L137.97,120.93L136.52,110.59L135.07,101.79L133.62,103.41L132.17,57.82L130.71,113.7L129.26,83.52L127.81,105.81L126.36,114.07L124.9,131.03L123.45,101.84L122,143.73L120.55,89.34L119.09,119.13L117.64,114.66L116.19,127.09L114.74,133.73L113.28,115.94L110.38,112.71L108.93,93.67L107.48,110.14L106.02,56.47L104.57,91.31L103.12,63.89L101.67,77.11L100.21,56.31L98.76,42.57L97.31,87.61L95.86,56.3L94.4,74.78L92.95,93.09L91.5,33.38L90.05,76.88L88.59,87.66L87.14,72.07L85.69,87.16L82.78,43.55L81.33,79.66L79.88,47.65L78.43,44.05L76.98,53.67L75.52,70.91L74.07,31.22L72.62,64.19L71.17,64.48L69.71,47.1L68.26,51.44L66.81,102.62L65.36,54.69L63.9,78.93L62.45,60.95L61,67.23L59.55,59.83L58.09,86.05L56.64,84.8L55.19,87.61L53.74,107.35L52.29,82.82L50.83,94.38L49.38,87.46L47.93,89.24L46.48,88.96L45.02,77.17L43.57,29.79L42.12,66L40.67,60.71L39.21,49.53L37.76,27.95L36.31,34.84L34.86,56.87L33.4,70.59L31.95,56.81L30.5,59.08L29.05,57.65L27.59,75.81L26.14,54.7L24.69,84.55L23.24,63.98L21.79,79.2L20.33,49.91L18.88,102.41L17.43,44.57L15.98,73.86L14.52,66L13.07,46.88L11.62,84.47L10.17,30.08L8.71,64.78" style="fill: rgb(0, 154, 250); fill-opacity: 0.5; stroke-width: 0;"/></g></g><g class="errorbars"/><g class="lines"><path class="js-line" d="M8.71,93.16L10.17,115.8L11.62,103.52L13.07,111.36L14.52,75.9L15.98,96.32L17.43,102.32L18.88,125.51L20.33,105.89L21.79,102.84L23.24,94.7L24.69,141.07L26.14,112.07L27.59,109.44L29.05,96.04L30.5,133.75L31.95,105.34L33.4,120.53L34.86,106.53L36.31,73.75L37.76,110.31L39.21,82.22L40.67,149.59L42.12,79.81L43.57,88.41L45.02,94.78L46.48,159.45L47.93,107.47L49.38,114.35L50.83,96.62L52.29,132.63L53.74,116.37L55.19,110.19L56.64,111.63L58.09,89.63L59.55,135.13L61,88.71L62.45,111.76L63.9,109.87L66.81,133.33L68.26,103.67L69.71,63.33L71.17,95.39L72.62,66.94L74.07,81.8L75.52,83.98L76.98,94.42L78.43,64.04L79.88,61.12L81.33,94.29L82.78,68.94L84.24,63.8L85.69,121.28L87.14,104.38L88.59,114.39L90.05,101.89L91.5,82.39L92.95,103.26L94.4,85.81L95.86,58.98L97.31,113.55L98.76,86.9L100.21,128.71L101.67,90.2L103.12,132.56L104.57,106.71L106.02,151.62L107.48,139.01L108.93,136.06L110.38,149.06L111.83,121.92L113.28,121.49L114.74,145.86L116.19,142.92L117.64,153.41L119.09,136.13L120.55,138.76L122,145.93L123.45,144.78L124.9,145.62L126.36,183.32L127.81,151.43L129.26,188.93L130.71,189.25L132.17,204.15L133.62,179.58L135.07,215.76L136.52,195.12L137.97,213.34L139.43,186.85L140.88,176.04L142.33,204.85L143.78,182.63L146.69,198.32L148.14,236.65L149.59,185.12L151.05,203.76L152.5,177.2L153.95,208.37L155.4,208.71L156.86,192.01L158.31,187.47L159.76,152.39L161.21,151.12L162.66,146.13L164.12,177.89L165.57,185.3L167.02,176.94L168.47,193.2L169.93,186.9L171.38,165.71L172.83,202.51L174.28,172.17L175.74,169.03L177.19,153.82L178.64,178.76L180.09,169.92L181.55,162.4L183,144.63L184.45,149.47L185.9,128.91L188.81,165.32L190.26,168.74L191.71,176.24L193.16,149.38L194.62,144.5L196.07,133.76L197.52,163.38L198.97,130.57L200.43,146.46L201.88,136.5L203.33,129.69L204.78,143.55L206.24,144.89L207.69,131.12L209.14,110.08L210.59,130.31L212.05,86.57L213.5,103.38L217.85,123.84L219.31,128.76L220.76,127.07L222.21,123.56L223.66,71.14L225.12,127.91L226.57,66.21L228.02,102.39L229.47,80.13L230.93,92.53L232.38,96.26L233.83,94.6L235.28,118.59L236.74,126.25L238.19,124.76L239.64,131.82L241.09,120.21L242.54,121.05L244,134.49L245.45,121.69L248.35,163.79L249.81,146.06L251.26,197.72L252.71,157.14L254.16,157.76L255.62,183.8L258.52,151.97L259.97,166.71L261.43,183.73L262.88,131.48L264.33,140.9L265.78,145.04L267.24,131.28L268.69,127.89L270.14,159.79L271.59,140L273.04,165.56L274.5,128.34L275.95,161.3L277.4,139.44L278.85,138.75L280.31,111.81L281.76,138.74L283.21,116.82L284.66,107.13L286.12,122.38L287.57,132L289.02,135.21L290.47,112.37L291.93,154L293.38,100.79L294.83,149L296.28,111.8L297.73,117.69L299.19,109.92L299.19,79.7L297.73,30.63L296.28,39.04L294.83,48.29L293.38,52.46L291.93,65.75L290.47,69.7L289.02,36.87L287.57,66.04L286.12,34.33L284.66,99.04L283.21,47.09L281.76,72.09L280.31,98.18L278.85,84.13L277.4,80.16L275.95,48.23L274.5,72.63L273.04,68.22L271.59,71.69L270.14,61.23L268.69,87.86L267.24,22.58L265.78,89.17L264.33,77.39L262.88,92.47L261.43,82.1L259.97,52.84L258.52,49.08L257.07,41.33L255.62,79.14L254.16,6.89L252.71,50.37L251.26,49.03L249.81,94.13L245.45,44.46L244,74.96L242.54,8.76L241.09,85.33L239.64,81.5L238.19,57.43L236.74,80.29L235.28,27.84L233.83,81.75L232.38,48.94L230.93,71.74L229.47,66.04L228.02,62.85L226.57,54.3L225.12,90.54L223.66,45.73L222.21,73.63L220.76,48.1L219.31,74.74L217.85,72.18L216.4,103.29L214.95,81.17L213.5,56.9L212.05,79.84L210.59,89.2L209.14,109.59L206.24,49.94L204.78,30.4L203.33,87.4L201.88,27.78L200.43,103.51L198.97,66.58L197.52,21.45L196.07,42.2L194.62,17.57L193.16,61.49L191.71,55.84L190.26,73.5L188.81,73.12L187.36,84.69L185.9,50.7L184.45,128.83L183,85.43L181.55,156.59L180.09,107.39L178.64,164.75L177.19,127.52L175.74,158.38L172.83,111.49L171.38,156.89L169.93,90.47L168.47,147.15L167.02,75.21L165.57,94.88L164.12,86.46L162.66,118.51L161.21,83.39L159.76,83.79L158.31,84.9L156.86,110.09L155.4,132.1L153.95,91.22L152.5,115.76L151.05,53.13L149.59,111.15L148.14,89.53L146.69,115.98L145.24,55.77L140.88,133.22L139.43,78.53L137.97,120.93L136.52,110.59L135.07,101.79L133.62,103.41L132.17,57.82L130.71,113.7L129.26,83.52L127.81,105.81L126.36,114.07L124.9,131.03L123.45,101.84L122,143.73L120.55,89.34L119.09,119.13L117.64,114.66L116.19,127.09L114.74,133.73L113.28,115.94L110.38,112.71L108.93,93.67L107.48,110.14L106.02,56.47L104.57,91.31L103.12,63.89L101.67,77.11L100.21,56.31L98.76,42.57L97.31,87.61L95.86,56.3L94.4,74.78L92.95,93.09L91.5,33.38L90.05,76.88L88.59,87.66L87.14,72.07L85.69,87.16L82.78,43.55L81.33,79.66L79.88,47.65L78.43,44.05L76.98,53.67L75.52,70.91L74.07,31.22L72.62,64.19L71.17,64.48L69.71,47.1L68.26,51.44L66.81,102.62L65.36,54.69L63.9,78.93L62.45,60.95L61,67.23L59.55,59.83L58.09,86.05L56.64,84.8L55.19,87.61L53.74,107.35L52.29,82.82L50.83,94.38L49.38,87.46L47.93,89.24L46.48,88.96L45.02,77.17L43.57,29.79L42.12,66L40.67,60.71L39.21,49.53L37.76,27.95L36.31,34.84L34.86,56.87L33.4,70.59L31.95,56.81L30.5,59.08L29.05,57.65L27.59,75.81L26.14,54.7L24.69,84.55L23.24,63.98L21.79,79.2L20.33,49.91L18.88,102.41L17.43,44.57L15.98,73.86L14.52,66L13.07,46.88L11.62,84.47L10.17,30.08L8.71,64.78" style="vector-effect: non-scaling-stroke; fill: none; stroke: rgb(0, 154, 250); stroke-opacity: 1; stroke-width: 0px; opacity: 1;"/></g><g class="points"/><g class="text"/></g><g class="trace scatter trace0746b2" style="stroke-miterlimit: 2; opacity: 1;"><g class="fills"/><g class="errorbars"/><g class="lines"><path class="js-line" d="M8.71,78.97L10.17,72.94L11.62,94L14.52,70.95L15.98,85.09L17.43,73.44L18.88,113.96L20.33,77.9L21.79,91.02L23.24,79.34L24.69,112.81L26.14,83.39L27.59,92.62L29.05,76.85L30.5,96.41L31.95,81.07L33.4,95.56L34.86,81.7L36.31,54.3L37.76,69.13L39.21,65.87L40.67,105.15L42.12,72.9L43.57,59.1L45.02,85.97L46.48,124.2L47.93,98.36L49.38,100.9L50.83,95.5L52.29,107.73L53.74,111.86L55.19,98.9L56.64,98.21L58.09,87.84L59.55,97.48L61,77.97L62.45,86.35L63.9,94.4L65.36,88.69L66.81,117.97L68.26,77.55L69.71,55.21L71.17,79.93L74.07,56.51L75.52,77.44L76.98,74.05L78.43,54.05L79.88,54.38L81.33,86.97L82.78,56.25L84.24,63.22L85.69,104.22L87.14,88.22L88.59,101.02L90.05,89.38L91.5,57.88L92.95,98.18L95.86,57.64L97.31,100.58L98.76,64.74L100.21,92.51L101.67,83.66L103.12,98.23L104.57,99.01L106.02,104.05L107.48,124.58L108.93,114.86L110.38,130.89L111.83,118.08L113.28,118.72L114.74,139.79L116.19,135.01L117.64,134.04L119.09,127.63L120.55,114.05L122,144.83L123.45,123.31L126.36,148.7L127.81,128.62L129.26,136.22L130.71,151.47L132.17,130.99L133.62,141.5L135.07,158.77L136.52,152.86L137.97,167.13L139.43,132.69L140.88,154.63L142.33,158.81L143.78,132.05L145.24,124.5L146.69,157.15L148.14,163.09L151.05,128.44L152.5,146.48L153.95,149.79L155.4,170.41L159.76,118.09L161.21,117.25L162.66,132.32L164.12,132.18L165.57,140.09L167.02,126.07L168.47,170.18L169.93,138.68L171.38,161.3L172.83,157L174.28,155.85L175.74,163.7L177.19,140.67L178.64,171.76L180.09,138.66L181.55,159.5L183,115.03L184.45,139.15L185.9,89.8L187.36,115.26L190.26,121.12L191.71,116.04L193.16,105.43L194.62,81.04L198.97,98.57L200.43,124.99L201.88,82.14L203.33,108.54L204.78,86.98L206.24,97.41L207.69,102.24L209.14,109.84L210.59,109.75L212.05,83.21L213.5,80.14L214.95,96.2L216.4,111.65L217.85,98.01L219.31,101.75L220.76,87.58L222.21,98.6L223.66,58.43L225.12,109.22L226.57,60.25L228.02,82.62L229.47,73.08L230.93,82.13L232.38,72.6L233.83,88.17L235.28,73.21L236.74,103.27L238.19,91.1L239.64,106.66L241.09,102.77L242.54,64.91L244,104.73L245.45,83.07L246.9,101.13L248.35,119.43L249.81,120.09L251.26,123.37L252.71,103.76L254.16,82.33L255.62,131.47L257.07,103.04L258.52,100.52L259.97,109.78L261.43,132.92L262.88,111.97L264.33,109.15L265.78,117.11L267.24,76.93L268.69,107.87L270.14,110.51L271.59,105.84L273.04,116.89L274.5,100.49L275.95,104.76L277.4,109.8L278.85,111.44L280.31,105L281.76,105.42L283.21,81.96L284.66,103.09L286.12,78.36L287.57,99.02L289.02,86.04L290.47,91.04L291.93,109.88L293.38,76.63L294.83,98.64L296.28,75.42L297.73,74.16L299.19,94.81" style="vector-effect: non-scaling-stroke; fill: none; stroke: rgb(0, 154, 250); stroke-opacity: 1; stroke-width: 1px; opacity: 1;"/></g><g class="points"/><g class="text"/></g><g class="trace scatter trace6556b4" style="stroke-miterlimit: 2;"><g class="fills"><g><path class="js-fill" d="M8.71,-26.66L8.71,-26.66L8.71,124.16L10.17,127.54L11.62,122.81L14.52,125.58L15.98,125.41L17.43,129.54L18.88,121.45L20.33,125.79L21.79,127.5L23.24,124.71L24.69,116.79L26.14,121.63L27.59,121.04L29.05,121.29L30.5,115.89L34.86,113.39L36.31,113.81L37.76,111.89L39.21,114.41L40.67,108.03L42.12,110.46L43.57,111.99L45.02,111.43L46.48,110.86L47.93,113.6L49.38,107.34L50.83,115L52.29,108.6L53.74,111.7L55.19,105.63L56.64,111.85L58.09,109.77L59.55,110.01L62.45,108.5L63.9,113.94L65.36,110.82L66.81,113.59L68.26,111.34L69.71,116.95L71.17,112.56L72.62,117.57L74.07,113.08L75.52,115.69L76.98,121.34L78.43,118.36L79.88,116.85L81.33,121.71L84.24,117.55L85.69,118.44L87.14,112.06L88.59,116.97L90.05,110.83L91.5,121.45L92.95,114.45L94.4,122.15L95.86,115.91L97.31,119.28L98.76,120.18L100.21,118.67L101.67,124.76L103.12,123.03L104.57,124.2L106.02,126.87L107.48,131.68L108.93,131.37L111.83,131.95L113.28,129.43L116.19,124.73L117.64,134.82L119.09,131.07L120.55,133.02L123.45,130.15L124.9,129.27L126.36,128.24L127.81,128.87L129.26,134.48L130.71,129.05L132.17,131.72L133.62,124.87L135.07,130.38L136.52,131.47L137.97,132.38L139.43,127.81L140.88,123.45L142.33,125.29L143.78,132.7L145.24,127.51L146.69,127.44L148.14,129.41L149.59,123.92L151.05,128.43L152.5,118.37L153.95,124.77L155.4,127.11L156.86,121.44L158.31,122.19L159.76,121.9L161.21,122.42L162.66,119.94L165.57,115.35L167.02,116.37L168.47,118.22L169.93,123.33L171.38,115.97L172.83,122.45L174.28,119.44L175.74,120.2L177.19,123.86L178.64,122.29L180.09,119.58L181.55,121.38L183,121.92L184.45,120.72L187.36,125.04L188.81,122.76L191.71,123.23L193.16,116.81L194.62,121.07L196.07,119.95L197.52,122.79L198.97,119.5L200.43,118.33L201.88,119.91L203.33,127.01L204.78,121.2L206.24,121.08L207.69,123.06L209.14,123.28L210.59,125.9L212.05,121.69L213.5,123.28L214.95,123.49L216.4,124.69L217.85,125.24L219.31,121.64L220.76,123.16L222.21,126.37L225.12,130.17L226.57,126.93L228.02,127.25L229.47,129.45L230.93,124.87L232.38,133.42L233.83,126.64L235.28,131.46L236.74,131.09L238.19,129.28L239.64,130.55L241.09,133.83L245.45,130.71L246.9,131.94L248.35,134.12L249.81,128.51L251.26,132.71L252.71,128.31L254.16,130.3L255.62,129.85L257.07,131.78L258.52,124.28L259.97,131.31L261.43,131.57L264.33,119.69L265.78,120.48L267.24,120.94L268.69,123.31L271.59,117.19L273.04,116.09L274.5,116.23L275.95,118.07L277.4,112.94L278.85,117.26L280.31,110.41L281.76,110.84L283.21,106.01L284.66,108.93L286.12,106.33L287.57,105.78L289.02,106.95L290.47,103.51L291.93,107.19L293.38,100.61L294.83,106.73L296.28,100.56L297.73,100.26L299.19,97.64L299.19,68.24L297.73,69.73L296.28,68.7L294.83,75.03L291.93,74.76L290.47,78.52L289.02,77.36L287.57,78.08L286.12,76.56L284.66,79.4L283.21,79.61L281.76,77.16L280.31,82.26L278.85,84.2L277.4,80.14L275.95,85.85L274.5,84.63L273.04,81.53L271.59,86.85L270.14,86.19L268.69,89.25L267.24,85.34L265.78,88.38L264.33,85.58L261.43,93.46L259.97,93.68L258.52,90.11L257.07,94.48L255.62,94.69L254.16,92.76L252.71,92.21L251.26,94.66L249.81,93.18L248.35,95.56L246.9,95.34L245.45,89.63L244,94.21L242.54,91.93L241.09,94.63L239.64,95.16L238.19,90.4L236.74,94.13L235.28,93.36L233.83,88.29L232.38,94.21L230.93,88.65L229.47,93.72L228.02,95.36L226.57,92.37L225.12,95.54L220.76,91.63L219.31,86.69L216.4,89.14L214.95,91.37L212.05,86.74L210.59,90.18L209.14,90.96L207.69,87.34L204.78,88.13L203.33,88.47L200.43,81.03L198.97,84.32L197.52,84.34L196.07,82.79L194.62,86.93L193.16,84.93L190.26,87.36L188.81,92.31L185.9,88.54L184.45,88.13L180.09,84.92L178.64,82.86L177.19,86.44L175.74,84.97L172.83,87.88L171.38,84.42L169.93,89.34L168.47,89.04L167.02,84.57L165.57,87.65L164.12,85.21L162.66,89.35L161.21,90.97L159.76,89.99L158.31,92.22L156.86,91.56L155.4,99.17L153.95,93.96L152.5,92.09L151.05,95.66L149.59,93.62L148.14,96.19L146.69,101.14L145.24,100.04L143.78,103.57L142.33,98.01L140.88,96.31L139.43,98.46L137.97,102.64L136.52,102.39L135.07,101.24L133.62,98.91L132.17,105.93L130.71,102.26L129.26,107.56L127.81,104.25L126.36,103.41L124.9,105.75L123.45,102.74L122,106.14L120.55,104.66L119.09,105.46L117.64,105.12L116.19,97.43L114.74,102.33L113.28,104.07L111.83,107.35L110.38,105.24L108.93,104.3L107.48,105.95L106.02,101.81L104.57,101.05L103.12,103.39L101.67,96.74L100.21,90.08L98.76,98.73L97.31,91.07L95.86,89.26L94.4,93.58L92.95,89.55L91.5,94.03L90.05,81.87L88.59,85.15L87.14,82.81L85.69,88.99L84.24,89.75L82.78,84.2L81.33,88.9L79.88,81.03L78.43,82.99L76.98,81.51L75.52,81.71L74.07,79.54L72.62,79.13L69.71,77.46L68.26,72.75L66.81,75.87L65.36,74.13L63.9,74.76L62.45,65.8L61,64.57L59.55,66.43L56.64,67.14L55.19,60.11L53.74,65.1L52.29,61.71L50.83,70.09L49.38,59.71L46.48,66.58L45.02,66.11L43.57,71.45L42.12,64.51L39.21,69.21L37.76,62.86L36.31,74.47L34.86,73.06L33.4,75.36L31.95,75.44L30.5,79.73L29.05,78.69L27.59,83.66L26.14,82.6L24.69,79.37L23.24,85.16L18.88,89.16L17.43,91.49L15.98,87.37L14.52,88.97L13.07,86.4L11.62,90.86L10.17,90.7L8.71,92.44" style="fill: rgb(227, 111, 71); fill-opacity: 0.5; stroke-width: 0;"/></g></g><g class="errorbars"/><g class="lines"><path class="js-line" d="M8.71,124.16L10.17,127.54L11.62,122.81L14.52,125.58L15.98,125.41L17.43,129.54L18.88,121.45L20.33,125.79L21.79,127.5L23.24,124.71L24.69,116.79L26.14,121.63L27.59,121.04L29.05,121.29L30.5,115.89L34.86,113.39L36.31,113.81L37.76,111.89L39.21,114.41L40.67,108.03L42.12,110.46L43.57,111.99L45.02,111.43L46.48,110.86L47.93,113.6L49.38,107.34L50.83,115L52.29,108.6L53.74,111.7L55.19,105.63L56.64,111.85L58.09,109.77L59.55,110.01L62.45,108.5L63.9,113.94L65.36,110.82L66.81,113.59L68.26,111.34L69.71,116.95L71.17,112.56L72.62,117.57L74.07,113.08L75.52,115.69L76.98,121.34L78.43,118.36L79.88,116.85L81.33,121.71L84.24,117.55L85.69,118.44L87.14,112.06L88.59,116.97L90.05,110.83L91.5,121.45L92.95,114.45L94.4,122.15L95.86,115.91L97.31,119.28L98.76,120.18L100.21,118.67L101.67,124.76L103.12,123.03L104.57,124.2L106.02,126.87L107.48,131.68L108.93,131.37L111.83,131.95L113.28,129.43L116.19,124.73L117.64,134.82L119.09,131.07L120.55,133.02L123.45,130.15L124.9,129.27L126.36,128.24L127.81,128.87L129.26,134.48L130.71,129.05L132.17,131.72L133.62,124.87L135.07,130.38L136.52,131.47L137.97,132.38L139.43,127.81L140.88,123.45L142.33,125.29L143.78,132.7L145.24,127.51L146.69,127.44L148.14,129.41L149.59,123.92L151.05,128.43L152.5,118.37L153.95,124.77L155.4,127.11L156.86,121.44L158.31,122.19L159.76,121.9L161.21,122.42L162.66,119.94L165.57,115.35L167.02,116.37L168.47,118.22L169.93,123.33L171.38,115.97L172.83,122.45L174.28,119.44L175.74,120.2L177.19,123.86L178.64,122.29L180.09,119.58L181.55,121.38L183,121.92L184.45,120.72L187.36,125.04L188.81,122.76L191.71,123.23L193.16,116.81L194.62,121.07L196.07,119.95L197.52,122.79L198.97,119.5L200.43,118.33L201.88,119.91L203.33,127.01L204.78,121.2L206.24,121.08L207.69,123.06L209.14,123.28L210.59,125.9L212.05,121.69L213.5,123.28L214.95,123.49L216.4,124.69L217.85,125.24L219.31,121.64L220.76,123.16L222.21,126.37L225.12,130.17L226.57,126.93L228.02,127.25L229.47,129.45L230.93,124.87L232.38,133.42L233.83,126.64L235.28,131.46L236.74,131.09L238.19,129.28L239.64,130.55L241.09,133.83L245.45,130.71L246.9,131.94L248.35,134.12L249.81,128.51L251.26,132.71L252.71,128.31L254.16,130.3L255.62,129.85L257.07,131.78L258.52,124.28L259.97,131.31L261.43,131.57L264.33,119.69L265.78,120.48L267.24,120.94L268.69,123.31L271.59,117.19L273.04,116.09L274.5,116.23L275.95,118.07L277.4,112.94L278.85,117.26L280.31,110.41L281.76,110.84L283.21,106.01L284.66,108.93L286.12,106.33L287.57,105.78L289.02,106.95L290.47,103.51L291.93,107.19L293.38,100.61L294.83,106.73L296.28,100.56L297.73,100.26L299.19,97.64L299.19,68.24L297.73,69.73L296.28,68.7L294.83,75.03L291.93,74.76L290.47,78.52L289.02,77.36L287.57,78.08L286.12,76.56L284.66,79.4L283.21,79.61L281.76,77.16L280.31,82.26L278.85,84.2L277.4,80.14L275.95,85.85L274.5,84.63L273.04,81.53L271.59,86.85L270.14,86.19L268.69,89.25L267.24,85.34L265.78,88.38L264.33,85.58L261.43,93.46L259.97,93.68L258.52,90.11L257.07,94.48L255.62,94.69L254.16,92.76L252.71,92.21L251.26,94.66L249.81,93.18L248.35,95.56L246.9,95.34L245.45,89.63L244,94.21L242.54,91.93L241.09,94.63L239.64,95.16L238.19,90.4L236.74,94.13L235.28,93.36L233.83,88.29L232.38,94.21L230.93,88.65L229.47,93.72L228.02,95.36L226.57,92.37L225.12,95.54L220.76,91.63L219.31,86.69L216.4,89.14L214.95,91.37L212.05,86.74L210.59,90.18L209.14,90.96L207.69,87.34L204.78,88.13L203.33,88.47L200.43,81.03L198.97,84.32L197.52,84.34L196.07,82.79L194.62,86.93L193.16,84.93L190.26,87.36L188.81,92.31L185.9,88.54L184.45,88.13L180.09,84.92L178.64,82.86L177.19,86.44L175.74,84.97L172.83,87.88L171.38,84.42L169.93,89.34L168.47,89.04L167.02,84.57L165.57,87.65L164.12,85.21L162.66,89.35L161.21,90.97L159.76,89.99L158.31,92.22L156.86,91.56L155.4,99.17L153.95,93.96L152.5,92.09L151.05,95.66L149.59,93.62L148.14,96.19L146.69,101.14L145.24,100.04L143.78,103.57L142.33,98.01L140.88,96.31L139.43,98.46L137.97,102.64L136.52,102.39L135.07,101.24L133.62,98.91L132.17,105.93L130.71,102.26L129.26,107.56L127.81,104.25L126.36,103.41L124.9,105.75L123.45,102.74L122,106.14L120.55,104.66L119.09,105.46L117.64,105.12L116.19,97.43L114.74,102.33L113.28,104.07L111.83,107.35L110.38,105.24L108.93,104.3L107.48,105.95L106.02,101.81L104.57,101.05L103.12,103.39L101.67,96.74L100.21,90.08L98.76,98.73L97.31,91.07L95.86,89.26L94.4,93.58L92.95,89.55L91.5,94.03L90.05,81.87L88.59,85.15L87.14,82.81L85.69,88.99L84.24,89.75L82.78,84.2L81.33,88.9L79.88,81.03L78.43,82.99L76.98,81.51L75.52,81.71L74.07,79.54L72.62,79.13L69.71,77.46L68.26,72.75L66.81,75.87L65.36,74.13L63.9,74.76L62.45,65.8L61,64.57L59.55,66.43L56.64,67.14L55.19,60.11L53.74,65.1L52.29,61.71L50.83,70.09L49.38,59.71L46.48,66.58L45.02,66.11L43.57,71.45L42.12,64.51L39.21,69.21L37.76,62.86L36.31,74.47L34.86,73.06L33.4,75.36L31.95,75.44L30.5,79.73L29.05,78.69L27.59,83.66L26.14,82.6L24.69,79.37L23.24,85.16L18.88,89.16L17.43,91.49L15.98,87.37L14.52,88.97L13.07,86.4L11.62,90.86L10.17,90.7L8.71,92.44" style="vector-effect: non-scaling-stroke; fill: none; stroke: rgb(227, 111, 71); stroke-opacity: 1; stroke-width: 0px; opacity: 1;"/></g><g class="points"/><g class="text"/></g><g class="trace scatter trace86d806" style="stroke-miterlimit: 2; opacity: 1;"><g class="fills"/><g class="errorbars"/><g class="lines"><path class="js-line" d="M8.71,108.3L10.17,109.12L11.62,106.83L13.07,105.27L14.52,107.27L15.98,106.39L17.43,110.52L18.88,105.3L20.33,106.48L21.79,106.98L23.24,104.93L24.69,98.08L26.14,102.12L27.59,102.35L29.05,99.99L31.95,95.12L33.4,94.5L34.86,93.22L36.31,94.14L37.76,87.38L39.21,91.81L40.67,87.57L42.12,87.48L43.57,91.72L45.02,88.77L47.93,88.8L49.38,83.52L50.83,92.55L52.29,85.16L53.74,88.4L55.19,82.87L56.64,89.5L58.09,88.31L59.55,88.22L61,86.68L62.45,87.15L63.9,94.35L65.36,92.48L66.81,94.73L68.26,92.05L69.71,97.2L71.17,95.49L72.62,98.35L74.07,96.31L75.52,98.7L76.98,101.42L78.43,100.68L79.88,98.94L81.33,105.31L82.78,101.51L84.24,103.65L85.69,103.72L87.14,97.43L88.59,101.06L90.05,96.35L91.5,107.74L92.95,102L94.4,107.87L95.86,102.58L97.31,105.17L98.76,109.46L100.21,104.38L101.67,110.75L103.12,113.21L104.57,112.62L106.02,114.34L107.48,118.81L108.93,117.84L110.38,118.37L111.83,119.65L113.28,116.75L114.74,114.88L116.19,111.08L117.64,119.97L119.09,118.27L122,118.71L123.45,116.45L124.9,117.51L126.36,115.83L127.81,116.56L129.26,121.02L130.71,115.65L132.17,118.82L133.62,111.89L135.07,115.81L137.97,117.51L139.43,113.14L140.88,109.88L142.33,111.65L143.78,118.14L145.24,113.78L146.69,114.29L148.14,112.8L149.59,108.77L151.05,112.05L152.5,105.23L153.95,109.36L155.4,113.14L156.86,106.5L158.31,107.2L159.76,105.95L161.21,106.7L162.66,104.64L164.12,101.21L165.57,101.5L167.02,100.47L168.47,103.63L169.93,106.34L171.38,100.19L172.83,105.16L174.28,102.9L175.74,102.58L177.19,105.15L178.64,102.57L180.09,102.25L183,104.6L184.45,104.42L187.36,107.72L188.81,107.53L190.26,105.02L191.71,104.8L193.16,100.87L194.62,104L196.07,101.37L197.52,103.57L200.43,99.68L201.88,102.38L203.33,107.74L204.78,104.67L207.69,105.2L209.14,107.12L210.59,108.04L212.05,104.22L214.95,107.43L216.4,106.91L217.85,106.5L219.31,104.17L222.21,109.5L223.66,111.33L225.12,112.86L226.57,109.65L228.02,111.3L229.47,111.58L230.93,106.76L232.38,113.82L233.83,107.47L235.28,112.41L236.74,112.61L238.19,109.84L241.09,114.23L242.54,112.39L244,113.24L245.45,110.17L246.9,113.64L248.35,114.84L249.81,110.84L251.26,113.69L252.71,110.26L254.16,111.53L257.07,113.13L258.52,107.2L259.97,112.5L261.43,112.51L264.33,102.63L265.78,104.43L267.24,103.14L268.69,106.28L270.14,102.77L271.59,102.02L273.04,98.81L274.5,100.43L275.95,101.96L277.4,96.54L278.85,100.73L280.31,96.34L283.21,92.81L284.66,94.17L286.12,91.45L287.57,91.93L289.02,92.15L290.47,91.01L291.93,90.98L293.38,87.71L294.83,90.88L296.28,84.63L297.73,84.99L299.19,82.94" style="vector-effect: non-scaling-stroke; fill: none; stroke: rgb(227, 111, 71); stroke-opacity: 1; stroke-width: 1px; opacity: 1;"/></g><g class="points"/><g class="text"/></g></g></g><g class="overplot"/><path class="xlines-above crisp" d="M16.860411198600175,267.4582968795567H325.76181102362204" style="fill: none; stroke-width: 1px; stroke: rgb(0, 0, 0); stroke-opacity: 1;"/><path class="ylines-above crisp" d="M17.360411198600175,23.41207349081365V266.9582968795567" style="fill: none; stroke-width: 1px; stroke: rgb(0, 0, 0); stroke-opacity: 1;"/><g class="overlines-above"/><g class="xaxislayer-above"><path class="xtick ticks crisp" d="M0,266.9582968795567v-5" transform="translate(26.570411198600176,0)" style="stroke: rgb(0, 0, 0); stroke-opacity: 1; stroke-width: 1px;"/><path class="xtick ticks crisp" d="M0,266.9582968795567v-5" transform="translate(99.19041119860017,0)" style="stroke: rgb(0, 0, 0); stroke-opacity: 1; stroke-width: 1px;"/><path class="xtick ticks crisp" d="M0,266.9582968795567v-5" transform="translate(171.81041119860015,0)" style="stroke: rgb(0, 0, 0); stroke-opacity: 1; stroke-width: 1px;"/><path class="xtick ticks crisp" d="M0,266.9582968795567v-5" transform="translate(244.43041119860015,0)" style="stroke: rgb(0, 0, 0); stroke-opacity: 1; stroke-width: 1px;"/><path class="xtick ticks crisp" d="M0,266.9582968795567v-5" transform="translate(317.05041119860016,0)" style="stroke: rgb(0, 0, 0); stroke-opacity: 1; stroke-width: 1px;"/><g class="xtick"><text text-anchor="middle" x="0" y="281.1582968795567" transform="translate(26.570411198600176,0)" style="font-family: sans-serif; font-size: 11px; fill: rgb(0, 0, 0); fill-opacity: 1; white-space: pre;">-100</text></g><g class="xtick"><text text-anchor="middle" x="0" y="281.1582968795567" transform="translate(99.19041119860017,0)" style="font-family: sans-serif; font-size: 11px; fill: rgb(0, 0, 0); fill-opacity: 1; white-space: pre;">-50</text></g><g class="xtick"><text text-anchor="middle" x="0" y="281.1582968795567" transform="translate(171.81041119860015,0)" style="font-family: sans-serif; font-size: 11px; fill: rgb(0, 0, 0); fill-opacity: 1; white-space: pre;">0</text></g><g class="xtick"><text text-anchor="middle" x="0" y="281.1582968795567" transform="translate(244.43041119860015,0)" style="font-family: sans-serif; font-size: 11px; fill: rgb(0, 0, 0); fill-opacity: 1; white-space: pre;">50</text></g><g class="xtick"><text text-anchor="middle" x="0" y="281.1582968795567" transform="translate(317.05041119860016,0)" style="font-family: sans-serif; font-size: 11px; fill: rgb(0, 0, 0); fill-opacity: 1; white-space: pre;">100</text></g></g><g class="yaxislayer-above"><path class="ytick ticks crisp" d="M17.860411198600175,0h5" transform="translate(0,252.76207349081363)" style="stroke: rgb(0, 0, 0); stroke-opacity: 1; stroke-width: 1px;"/><path class="ytick ticks crisp" d="M17.860411198600175,0h5" transform="translate(0,216.19207349081364)" style="stroke: rgb(0, 0, 0); stroke-opacity: 1; stroke-width: 1px;"/><path class="ytick ticks crisp" d="M17.860411198600175,0h5" transform="translate(0,179.61207349081363)" style="stroke: rgb(0, 0, 0); stroke-opacity: 1; stroke-width: 1px;"/><path class="ytick ticks crisp" d="M17.860411198600175,0h5" transform="translate(0,143.04207349081364)" style="stroke: rgb(0, 0, 0); stroke-opacity: 1; stroke-width: 1px;"/><path class="ytick ticks crisp" d="M17.860411198600175,0h5" transform="translate(0,106.47207349081366)" style="stroke: rgb(0, 0, 0); stroke-opacity: 1; stroke-width: 1px;"/><path class="ytick ticks crisp" d="M17.860411198600175,0h5" transform="translate(0,69.90207349081365)" style="stroke: rgb(0, 0, 0); stroke-opacity: 1; stroke-width: 1px;"/><path class="ytick ticks crisp" d="M17.860411198600175,0h5" transform="translate(0,33.32207349081365)" style="stroke: rgb(0, 0, 0); stroke-opacity: 1; stroke-width: 1px;"/><g class="ytick"><text text-anchor="end" x="14.660411198600176" y="3.8499999999999996" transform="translate(0,252.76207349081363)" style="font-family: sans-serif; font-size: 11px; fill: rgb(0, 0, 0); fill-opacity: 1; white-space: pre;">-7</text></g><g class="ytick"><text text-anchor="end" x="14.660411198600176" y="3.8499999999999996" transform="translate(0,216.19207349081364)" style="font-family: sans-serif; font-size: 11px; fill: rgb(0, 0, 0); fill-opacity: 1; white-space: pre;">-6</text></g><g class="ytick"><text text-anchor="end" x="14.660411198600176" y="3.8499999999999996" transform="translate(0,179.61207349081363)" style="font-family: sans-serif; font-size: 11px; fill: rgb(0, 0, 0); fill-opacity: 1; white-space: pre;">-5</text></g><g class="ytick"><text text-anchor="end" x="14.660411198600176" y="3.8499999999999996" transform="translate(0,143.04207349081364)" style="font-family: sans-serif; font-size: 11px; fill: rgb(0, 0, 0); fill-opacity: 1; white-space: pre;">-4</text></g><g class="ytick"><text text-anchor="end" x="14.660411198600176" y="3.8499999999999996" transform="translate(0,106.47207349081366)" style="font-family: sans-serif; font-size: 11px; fill: rgb(0, 0, 0); fill-opacity: 1; white-space: pre;">-3</text></g><g class="ytick"><text text-anchor="end" x="14.660411198600176" y="3.8499999999999996" transform="translate(0,69.90207349081365)" style="font-family: sans-serif; font-size: 11px; fill: rgb(0, 0, 0); fill-opacity: 1; white-space: pre;">-2</text></g><g class="ytick"><text text-anchor="end" x="14.660411198600176" y="3.8499999999999996" transform="translate(0,33.32207349081365)" style="font-family: sans-serif; font-size: 11px; fill: rgb(0, 0, 0); fill-opacity: 1; white-space: pre;">-1</text></g></g><g class="overaxes-above"/></g></g><g class="polarlayer"/><g class="ternarylayer"/><g class="geolayer"/><g class="pielayer"/><g class="glimages"/><defs id="topdefs-1ffa18"><g class="clips"/><clipPath id="legend1ffa18"><rect width="71" height="48" x="0" y="0"/></clipPath></defs><g class="layer-above"><g class="imagelayer"/><g class="shapelayer"/></g><g class="infolayer"><g class="legend" pointer-events="all" transform="translate(329, 20)"><rect class="bg" shape-rendering="crispEdges" width="71" height="48" x="0" y="0" style="stroke: rgb(0, 0, 0); stroke-opacity: 1; fill: rgb(255, 255, 255); fill-opacity: 1; stroke-width: 0px;"/><g class="scrollbox" transform="translate(0, 0)" clip-path="url(#legend1ffa18)"><g class="groups" transform="translate(0, 0)"><g class="traces" transform="translate(0, 14.5)" style="opacity: 1;"><text class="legendtext user-select-none" text-anchor="start" x="40" y="4.29" style="font-family: sans-serif; font-size: 11px; fill: rgb(0, 0, 0); fill-opacity: 1; white-space: pre;">false</text><rect class="legendtoggle" pointer-events="all" x="0" y="-9.5" width="111" height="19" style="cursor: pointer; fill: rgb(0, 0, 0); fill-opacity: 0;"/><g class="layers" style="opacity: 1;"><g class="legendfill"/><g class="legendlines"><path class="js-line" d="M5,0h30" style="fill: none; stroke: rgb(0, 154, 250); stroke-opacity: 1; stroke-width: 1px;"/></g><g class="legendsymbols"><g class="legendpoints"/></g></g></g></g><g class="groups" transform="translate(0, 0)"><g class="traces" transform="translate(0, 33.5)" style="opacity: 1;"><text class="legendtext user-select-none" text-anchor="start" x="40" y="4.29" style="font-family: sans-serif; font-size: 11px; fill: rgb(0, 0, 0); fill-opacity: 1; white-space: pre;">true</text><rect class="legendtoggle" pointer-events="all" x="0" y="-9.5" width="111" height="19" style="cursor: pointer; fill: rgb(0, 0, 0); fill-opacity: 0;"/><g class="layers" style="opacity: 1;"><g class="legendfill"/><g class="legendlines"><path class="js-line" d="M5,0h30" style="fill: none; stroke: rgb(227, 111, 71); stroke-opacity: 1; stroke-width: 1px;"/></g><g class="legendsymbols"><g class="legendpoints"/></g></g></g></g></g><rect class="scrollbar" rx="20" ry="3" width="0" height="0" x="0" y="0" style="fill: rgb(128, 139, 164); fill-opacity: 1;"/></g><g class="g-gtitle"/><g class="g-xtitle"/><g class="g-ytitle"/></g></svg>