<?xml version="1.0" standalone="no"?><!-- Generator: Gravit.io --><svg xmlns="http://www.w3.org/2000/svg" xmlns:xlink="http://www.w3.org/1999/xlink" style="isolation:isolate" viewBox="50.325 311 301.675 369" width="301.675" height="369"><g><rect x="166.988" y="604.129" width="51.46" height="100.282" transform="matrix(0,-1,1,0,-461.552,846.988)" fill="rgb(94,145,141)"/><clipPath id="_clipPath_92r4EfSAsc8dQPXRpLqZ6c8iliAjte6a"><rect x="166.988" y="604.129" width="51.46" height="100.282" transform="matrix(0,-1,1,0,-461.552,846.988)" fill="rgb(94,145,141)"/></clipPath><g clip-path="url(#_clipPath_92r4EfSAsc8dQPXRpLqZ6c8iliAjte6a)"><path d=" M 192.718 680 L 192.718 628.54 L 192.718 628.54" fill="none" vector-effect="non-scaling-stroke" stroke-width="1" stroke="rgb(0,0,0)" stroke-linejoin="miter" stroke-linecap="square" stroke-miterlimit="3"/></g><rect x="100.595" y="501.08" width="51.46" height="152" transform="matrix(0,-1,1,0,-450.754,703.405)" fill="rgb(168,168,168)"/><clipPath id="_clipPath_svH6kNJsK3Ka64kROfyFq6YaCKYZJJEg"><rect x="100.595" y="501.08" width="51.46" height="152" transform="matrix(0,-1,1,0,-450.754,703.405)" fill="rgb(168,168,168)"/></clipPath><g clip-path="url(#_clipPath_svH6kNJsK3Ka64kROfyFq6YaCKYZJJEg)"><path d=" M 192.718 602.81 L 192.718 551.349 L 192.718 551.349" fill="none" vector-effect="non-scaling-stroke" stroke-width="1" stroke="rgb(0,0,0)" stroke-linejoin="miter" stroke-linecap="square" stroke-miterlimit="3"/></g><rect x="137.553" y="434.61" width="51.46" height="152" transform="matrix(0,-1,1,0,-347.327,673.893)" fill="rgb(168,168,168)"/><clipPath id="_clipPath_9KfTHN941bY3hXE0vEGtXoD0IIGqssoM"><rect x="137.553" y="434.61" width="51.46" height="152" transform="matrix(0,-1,1,0,-347.327,673.893)" fill="rgb(168,168,168)"/></clipPath><g clip-path="url(#_clipPath_9KfTHN941bY3hXE0vEGtXoD0IIGqssoM)"><path d=" M 192.718 536.34 L 192.718 484.88 L 192.718 484.88" fill="none" vector-effect="non-scaling-stroke" stroke-width="1" stroke="rgb(0,0,0)" stroke-linejoin="miter" stroke-linecap="square" stroke-miterlimit="3"/></g><rect x="173.493" y="368.141" width="51.46" height="152" transform="matrix(0,-1,1,0,-244.917,643.364)" fill="rgb(168,168,168)"/><clipPath id="_clipPath_7JuF57Msr34PF0RqbHSHzYqFKIXe8cB3"><rect x="173.493" y="368.141" width="51.46" height="152" transform="matrix(0,-1,1,0,-244.917,643.364)" fill="rgb(168,168,168)"/></clipPath><g clip-path="url(#_clipPath_7JuF57Msr34PF0RqbHSHzYqFKIXe8cB3)"><path d=" M 192.718 469.871 L 192.718 418.41 L 192.718 418.41" fill="none" vector-effect="non-scaling-stroke" stroke-width="1" stroke="rgb(0,0,0)" stroke-linejoin="miter" stroke-linecap="square" stroke-miterlimit="3"/></g><rect x="208.27" y="301.671" width="51.46" height="152" transform="matrix(0,-1,1,0,-143.671,611.671)" fill="rgb(168,168,168)"/><clipPath id="_clipPath_fJ6zXUZDUHODHiNqnmSYeYDx41pZ7dFq"><rect x="208.27" y="301.671" width="51.46" height="152" transform="matrix(0,-1,1,0,-143.671,611.671)" fill="rgb(168,168,168)"/></clipPath><g clip-path="url(#_clipPath_fJ6zXUZDUHODHiNqnmSYeYDx41pZ7dFq)"><path d=" M 192.718 403.401 L 192.718 351.941 L 192.718 351.941" fill="none" vector-effect="non-scaling-stroke" stroke-width="1" stroke="rgb(0,0,0)" stroke-linejoin="miter" stroke-linecap="square" stroke-miterlimit="3"/></g><g style="mix-blend-mode:hard-light;"><rect x="158" y="377.671" width="152" height="25.73" transform="matrix(1,0,0,1,0,0)" fill="rgb(85,85,85)"/></g><g style="mix-blend-mode:hard-light;"><rect x="123.224" y="444.141" width="152" height="25.73" transform="matrix(1,0,0,1,0,0)" fill="rgb(85,85,85)"/></g><g style="mix-blend-mode:hard-light;"><rect x="87.283" y="510.61" width="152" height="25.73" transform="matrix(1,0,0,1,0,0)" fill="rgb(85,85,85)"/></g><g style="mix-blend-mode:hard-light;"><rect x="50.325" y="577.08" width="152" height="25.73" transform="matrix(1,0,0,1,0,0)" fill="rgb(85,85,85)"/></g><g style="mix-blend-mode:hard-light;"><rect x="142.577" y="654.27" width="100.141" height="25.73" transform="matrix(1,0,0,1,0,0)" fill="rgb(85,85,85)"/></g><rect x="142.718" y="336.231" width="100" height="273.383" transform="matrix(1,0,0,1,0,0)" fill="rgb(94,145,141)" fill-opacity="0.4"/><g transform="matrix(1,0,0,1,244,311)"><text transform="matrix(1,0,0,1,0,32.065)" style="font-family:'Open Sans';font-weight:400;font-size:30px;font-style:normal;fill:#000000;stroke:none;">time</text></g><g transform="matrix(0,1,-1,0,352,345.231)"><text transform="matrix(1,0,0,1,0,32.065)" style="font-family:'Open Sans';font-weight:400;font-size:30px;font-style:normal;fill:#000000;stroke:none;">cells</text></g></g></svg>