<?xml version="1.0" standalone="no"?><!-- Generator: Gravit.io --><svg xmlns="http://www.w3.org/2000/svg" xmlns:xlink="http://www.w3.org/1999/xlink" style="isolation:isolate" viewBox="50.325 36.231 259.675 213.769" width="259.675" height="213.769"><g><rect x="176.718" y="183.859" width="32" height="100.282" transform="matrix(0,-1,1,0,-41.282,426.718)" fill="rgb(94,145,141)"/><clipPath id="_clipPath_QhNm8S2xs99lnmbgH8NWDUgTYMklzwfA"><rect x="176.718" y="183.859" width="32" height="100.282" transform="matrix(0,-1,1,0,-41.282,426.718)" fill="rgb(94,145,141)"/></clipPath><g clip-path="url(#_clipPath_QhNm8S2xs99lnmbgH8NWDUgTYMklzwfA)"><path d=" M 192.718 250 L 192.718 218 L 192.718 218" fill="none" vector-effect="non-scaling-stroke" stroke-width="1" stroke="rgb(0,0,0)" stroke-linejoin="miter" stroke-linecap="square" stroke-miterlimit="3"/></g><rect x="110.325" y="110" width="32" height="152" transform="matrix(0,-1,1,0,-59.675,312.325)" fill="rgb(168,168,168)"/><clipPath id="_clipPath_pCmNGQy5Hk7yh5Ib9JyRxMEY14u4gXOG"><rect x="110.325" y="110" width="32" height="152" transform="matrix(0,-1,1,0,-59.675,312.325)" fill="rgb(168,168,168)"/></clipPath><g clip-path="url(#_clipPath_pCmNGQy5Hk7yh5Ib9JyRxMEY14u4gXOG)"><path d=" M 192.718 202 L 192.718 170 L 192.718 170" fill="none" vector-effect="non-scaling-stroke" stroke-width="1" stroke="rgb(0,0,0)" stroke-linejoin="miter" stroke-linecap="square" stroke-miterlimit="3"/></g><rect x="147.283" y="68.667" width="32" height="152" transform="matrix(0,-1,1,0,18.617,307.95)" fill="rgb(168,168,168)"/><clipPath id="_clipPath_xN9thvxjHYGWqaQDRDx1A3qyl2XTRzUs"><rect x="147.283" y="68.667" width="32" height="152" transform="matrix(0,-1,1,0,18.617,307.95)" fill="rgb(168,168,168)"/></clipPath><g clip-path="url(#_clipPath_xN9thvxjHYGWqaQDRDx1A3qyl2XTRzUs)"><path d=" M 192.718 160.667 L 192.718 128.667 L 192.718 128.667" fill="none" vector-effect="non-scaling-stroke" stroke-width="1" stroke="rgb(0,0,0)" stroke-linejoin="miter" stroke-linecap="square" stroke-miterlimit="3"/></g><rect x="183.224" y="27.333" width="32" height="152" transform="matrix(0,-1,1,0,95.89,302.557)" fill="rgb(168,168,168)"/><clipPath id="_clipPath_lOFAWoNmJgfvwfDJYZ8qMDvCbTxIfkNL"><rect x="183.224" y="27.333" width="32" height="152" transform="matrix(0,-1,1,0,95.89,302.557)" fill="rgb(168,168,168)"/></clipPath><g clip-path="url(#_clipPath_lOFAWoNmJgfvwfDJYZ8qMDvCbTxIfkNL)"><path d=" M 192.718 119.333 L 192.718 87.333 L 192.718 87.333" fill="none" vector-effect="non-scaling-stroke" stroke-width="1" stroke="rgb(0,0,0)" stroke-linejoin="miter" stroke-linecap="square" stroke-miterlimit="3"/></g><rect x="218" y="-14" width="32" height="152" transform="matrix(0,-1,1,0,172,296)" fill="rgb(168,168,168)"/><clipPath id="_clipPath_UKTyx1d0y91Zev1Na04BNnwiL3sfqnwV"><rect x="218" y="-14" width="32" height="152" transform="matrix(0,-1,1,0,172,296)" fill="rgb(168,168,168)"/></clipPath><g clip-path="url(#_clipPath_UKTyx1d0y91Zev1Na04BNnwiL3sfqnwV)"><path d=" M 192.718 78 L 192.718 46 L 192.718 46" fill="none" vector-effect="non-scaling-stroke" stroke-width="1" stroke="rgb(0,0,0)" stroke-linejoin="miter" stroke-linecap="square" stroke-miterlimit="3"/></g><rect x="142.718" y="36.231" width="100" height="170" transform="matrix(1,0,0,1,0,0)" fill="rgb(94,145,141)" fill-opacity="0.4"/></g></svg>